<svg xmlns="http://www.w3.org/2000/svg" viewBox="0 0 98 96" width="32" height="32" fill="#a9a9a9">
  <path d="M49 0C21.9 0 0 21.9 0 49c0 21.7 14 40 33.3 46.5 2.4.4 3.3-1 3.3-2.3 0-1.1 0-4-0.1-7.9-13.5 2.9-16.3-6.5-16.3-6.5-2.2-5.7-5.3-7.2-5.3-7.2-4.3-3 0.3-2.9 0.3-2.9 4.7 0.3 7.2 4.8 7.2 4.8 4.2 7.2 10.9 5.1 13.6 3.9 0.4-3 1.6-5.1 2.8-6.2-10.8-1.2-22.2-5.4-22.2-24.1 0-5.3 1.9-9.7 5-13.1-0.5-1.2-2.2-6.1 0.5-12.7 0 0 4.1-1.3 13.4 5 3.9-1.1 8-1.7 12.1-1.7s8.2 0.6 12.1 1.7c9.3-6.3 13.4-5 13.4-5 2.7 6.6 1 11.5 0.5 12.7 3.1 3.4 5 7.8 5 13.1 0 18.7-11.4 22.9-22.2 24.1 1.6 1.4 3 4.2 3 8.5 0 6.2-0.1 11.2-0.1 12.7 0 1.3 0.9 2.7 3.3 2.3C84 89 98 70.7 98 49 98 21.9 76.1 0 49 0z"/>
</svg>
